<svg xmlns="http://www.w3.org/2000/svg" xmlns:xlink="http://www.w3.org/1999/xlink" viewBox="0 0 386.56 207.47"><defs><style>.cls-1,.cls-10,.cls-11,.cls-12,.cls-13,.cls-14,.cls-15,.cls-4,.cls-9{fill:none;}.cls-2{clip-path:url(#clip-path);}.cls-3{fill:#3fc6f0;}.cls-13,.cls-14,.cls-15,.cls-4{stroke:#231f20;}.cls-10,.cls-11,.cls-12,.cls-13,.cls-14,.cls-15,.cls-4,.cls-9{stroke-miterlimit:10;}.cls-5{fill:#f15652;}.cls-6{fill:#a91e22;}.cls-7{fill:#2e358f;}.cls-8{fill:#231f20;}.cls-9{stroke:#fff;stroke-width:3px;}.cls-10{stroke:#3fc6f0;}.cls-10,.cls-13{stroke-width:10px;}.cls-11{stroke:#2e3192;stroke-width:13.42px;}.cls-12{stroke:#4a4ca0;}.cls-12,.cls-15{stroke-width:7px;}.cls-14{stroke-width:6.26px;}.cls-16{fill:url(#linear-gradient);}.cls-17{fill:#fff;}.cls-18{fill:url(#linear-gradient-2);}</style><clipPath id="clip-path" transform="translate(-107.19 -333.14)"><rect class="cls-1" x="0.85" y="10.72" width="595.28" height="841.89"/></clipPath><linearGradient id="linear-gradient" x1="258.04" y1="472.17" x2="350.21" y2="472.17" gradientUnits="userSpaceOnUse"><stop offset="0" stop-color="#2e358f"/><stop offset="0.22" stop-color="#3571b7"/><stop offset="0.42" stop-color="#3a9fd6"/><stop offset="0.57" stop-color="#3ebbe9"/><stop offset="0.66" stop-color="#3fc6f0"/></linearGradient><linearGradient id="linear-gradient-2" x1="403.86" y1="449.64" x2="434.76" y2="411.93" gradientUnits="userSpaceOnUse"><stop offset="0" stop-color="#a91e22"/><stop offset="1" stop-color="#f15652"/></linearGradient></defs><title>creator</title><g id="Layer_1" data-name="Layer 1"><g class="cls-2"><path class="cls-3" d="M249.72,483.45c-25.4,13.85-48.73,18.23-55.91,9.19-1.5-1.89-3.2-5.32-2.55-11.75-16.54,5.49-30.22-1.5-31.92-8.93-1.42-6.19,4.9-15.11,15.57-20.17a133.82,133.82,0,0,1-18.89-.51c-12.93-1.28-16.26-3.56-17.62-4.6s-8.47-6.53-6.89-13.28c1.11-4.71,6.06-8.42,12.26-8.93-14.49-.38-27.27-7.89-32.94-19.66a34.36,34.36,0,0,1-2.3-22l154.73,19.41s4.08,9.44,23.48,21.7l-32.68,1.53c-.7-1.13-5.64-8.76-15.06-10-6.36-.8-14.46,1.36-18.13,7.41-2.94,4.85-1.8,10.2-.51,15.83,2,8.88,5.88,14.24,15.83,28.85,2.48,3.64,8.06,7.67,13.53,15.83" transform="translate(-107.19 -333.14)"/><path class="cls-4" d="M249.72,483.45c-25.4,13.85-48.73,18.23-55.91,9.19-1.5-1.89-3.2-5.32-2.55-11.75-16.54,5.49-30.22-1.5-31.92-8.93-1.42-6.19,4.9-15.11,15.57-20.17a133.82,133.82,0,0,1-18.89-.51c-12.93-1.28-16.26-3.56-17.62-4.6s-8.47-6.53-6.89-13.28c1.11-4.71,6.06-8.42,12.26-8.93-14.49-.38-27.27-7.89-32.94-19.66a34.36,34.36,0,0,1-2.3-22l154.73,19.41s4.08,9.44,23.48,21.7l-32.68,1.53c-.7-1.13-5.64-8.76-15.06-10-6.36-.8-14.46,1.36-18.13,7.41-2.94,4.85-1.8,10.2-.51,15.83,2,8.88,5.88,14.24,15.83,28.85C238.67,471.26,244.25,475.29,249.72,483.45Z" transform="translate(-107.19 -333.14)"/><path class="cls-5" d="M351.21,481c25.41,13.85,48.74,18.23,55.92,9.19,1.5-1.88,3.19-5.32,2.55-11.74,16.54,5.49,30.21-1.5,31.92-8.94,1.41-6.19-4.91-15.11-15.58-20.17a132.41,132.41,0,0,0,18.9-.51c12.93-1.28,16.26-3.55,17.61-4.59s8.48-6.54,6.9-13.28c-1.11-4.71-6.06-8.43-12.26-8.94,14.49-.37,27.27-7.88,32.94-19.66a34.31,34.31,0,0,0,2.29-22L337.68,399.8s-4.08,9.45-23.49,21.7L346.87,423c.71-1.13,5.65-8.76,15.07-9.95,6.35-.81,14.46,1.35,18.13,7.4,2.94,4.86,1.8,10.2.51,15.83-2,8.88-5.88,14.25-15.83,28.85-2.49,3.65-8.06,7.68-13.54,15.83" transform="translate(-107.19 -333.14)"/><path class="cls-4" d="M351.21,481c25.41,13.85,48.74,18.23,55.92,9.19,1.5-1.88,3.19-5.32,2.55-11.74,16.54,5.49,30.21-1.5,31.92-8.94,1.41-6.19-4.91-15.11-15.58-20.17a132.41,132.41,0,0,0,18.9-.51c12.93-1.28,16.26-3.55,17.61-4.59s8.48-6.54,6.9-13.28c-1.11-4.71-6.06-8.43-12.26-8.94,14.49-.37,27.27-7.88,32.94-19.66a34.31,34.31,0,0,0,2.29-22L337.68,399.8s-4.08,9.45-23.49,21.7L346.87,423c.71-1.13,5.65-8.76,15.07-9.95,6.35-.81,14.46,1.35,18.13,7.4,2.94,4.86,1.8,10.2.51,15.83-2,8.88-5.88,14.25-15.83,28.85C362.26,468.81,356.69,472.84,351.21,481Z" transform="translate(-107.19 -333.14)"/><path class="cls-6" d="M474.71,406.21S387.22,416.42,378,417.1l2.64,5.36c17.59-.15,31.63,0,40.74.09,26.73.34,41.08,1.11,49.13-8.51a22.55,22.55,0,0,0,4.17-7.83" transform="translate(-107.19 -333.14)"/><path class="cls-7" d="M123.55,411.32s86.45,8.34,95.54,8.9l-2.61,4.38c-17.39-.12-31.26,0-40.26.07-26.42.28-40.6.91-48.55-6.95a17.57,17.57,0,0,1-4.12-6.4" transform="translate(-107.19 -333.14)"/><path class="cls-8" d="M477.72,411.42a28.5,28.5,0,0,1-9.58,7.77,33.05,33.05,0,0,1-12,3.08c-8.25.63-16.5.78-24.76.93s-16.51.16-24.76.14-16.51-.16-24.76-.32l0-1c8.25.16,16.5.24,24.75.33s16.49.09,24.74,0,16.5-.2,24.71-.78a33.19,33.19,0,0,0,11.87-2.83,30.06,30.06,0,0,0,9.79-7.33" transform="translate(-107.19 -333.14)"/><path class="cls-8" d="M442,446.27a64.45,64.45,0,0,1-14.93,3.21,87.85,87.85,0,0,1-15.3.21,95.57,95.57,0,0,1-15.13-2.34,104.39,104.39,0,0,1-14.57-4.7l.37-.93a107.8,107.8,0,0,0,14.44,4.62,93.49,93.49,0,0,0,15,2.43,88.1,88.1,0,0,0,15.15-.09c2.52-.28,5-.56,7.53-1s5-.89,7.48-1.43" transform="translate(-107.19 -333.14)"/><path class="cls-4" d="M409.43,478.31S394.11,463.37,367,463.37" transform="translate(-107.19 -333.14)"/><path class="cls-5" d="M301,407.47a20.45,20.45,0,0,0,10.37-.88,25.7,25.7,0,0,0,4.9-2.37,27.61,27.61,0,0,0,4-43.59,25.52,25.52,0,0,0-9.19-5.55,22.33,22.33,0,0,0-10.25-1l.15-13.41a41,41,0,0,1,14.53,4.42A40,40,0,0,1,337,380.52a40.18,40.18,0,0,1-10.32,25.93,37.7,37.7,0,0,1-5.28,4.89,34.48,34.48,0,0,1-6.21,3.89A37.29,37.29,0,0,1,300.62,419Z" transform="translate(-107.19 -333.14)"/><path class="cls-9" d="M305.47,351.83a21.89,21.89,0,0,1,5.74,1.32,21.34,21.34,0,0,1,5.36,2.94" transform="translate(-107.19 -333.14)"/><path class="cls-10" d="M268,379.92c-.16-2,1-17,12.76-25.79,8.12-6.07,18.52-6.38,20.94-6.38" transform="translate(-107.19 -333.14)"/><path class="cls-11" d="M268,379.79a34.91,34.91,0,0,0,10.72,22.85c9,8.79,19.41,10.72,22.47,10.72" transform="translate(-107.19 -333.14)"/><path class="cls-5" d="M230.57,452s18.39-1.53,23.24-9.44l14.55,55.66S238.74,474.77,230.57,452" transform="translate(-107.19 -333.14)"/><path class="cls-12" d="M257.38,427l16,73.66c6.89,22.34,48.51,21.83,55-1.53" transform="translate(-107.19 -333.14)"/><path class="cls-13" d="M341.43,379.72a41.58,41.58,0,1,1-41.58-41.58A41.57,41.57,0,0,1,341.43,379.72Z" transform="translate(-107.19 -333.14)"/><path class="cls-8" d="M326.89,380.72a26,26,0,1,1-26-26,26,26,0,0,1,26,26" transform="translate(-107.19 -333.14)"/><circle class="cls-14" cx="300.85" cy="380.72" r="26.03" transform="translate(-246 252.91) rotate(-76.72)"/><path class="cls-5" d="M255.11,433.06a18.6,18.6,0,1,1-18.59-18.6,18.59,18.59,0,0,1,18.59,18.6" transform="translate(-107.19 -333.14)"/><path class="cls-15" d="M255.11,433.06a18.6,18.6,0,1,1-18.59-18.6A18.59,18.59,0,0,1,255.11,433.06Z" transform="translate(-107.19 -333.14)"/><path class="cls-3" d="M381.45,432.72a18.6,18.6,0,1,1-18.6-18.59,18.6,18.6,0,0,1,18.6,18.59" transform="translate(-107.19 -333.14)"/><path class="cls-15" d="M381.45,432.72a18.6,18.6,0,1,1-18.6-18.59A18.6,18.6,0,0,1,381.45,432.72Z" transform="translate(-107.19 -333.14)"/><path class="cls-15" d="M225.3,447.68c9.26,13.72,18.14,27.43,31,42.58a500.06,500.06,0,0,0,43.91,45.61,438.93,438.93,0,0,0,43.92-46.29,434.1,434.1,0,0,0,30.7-42.94" transform="translate(-107.19 -333.14)"/><path class="cls-16" d="M345.72,424.72l-92.17-.25a16.82,16.82,0,0,1,2,9.44,16.31,16.31,0,0,1-1.54,5.64q4.14,15.87,8.26,31.74c2.79,10.74,5.59,21.49,8.26,31.73a33.58,33.58,0,0,0,59.23-1.87l15.66-60.6a24.9,24.9,0,0,1-1.15-8.42,25.17,25.17,0,0,1,1.4-7.41" transform="translate(-107.19 -333.14)"/><path class="cls-15" d="M345.72,424.72l-92.17-.25a16.82,16.82,0,0,1,2,9.44,16.31,16.31,0,0,1-1.54,5.64q4.14,15.87,8.26,31.74c2.79,10.74,5.59,21.49,8.26,31.73a33.58,33.58,0,0,0,59.23-1.87l15.66-60.6a24.9,24.9,0,0,1-1.15-8.42A25.17,25.17,0,0,1,345.72,424.72Z" transform="translate(-107.19 -333.14)"/><path class="cls-17" d="M231.34,435.22c.1,2-1.18,3.78-2.88,3.87s-3.15-1.5-3.26-3.55,1.18-3.79,2.87-3.87,3.16,1.5,3.27,3.55" transform="translate(-107.19 -333.14)"/><path class="cls-17" d="M360.66,433.57a3.78,3.78,0,1,1-3.77-4.06,3.93,3.93,0,0,1,3.77,4.06" transform="translate(-107.19 -333.14)"/><path class="cls-17" d="M234.76,431.22a1.92,1.92,0,1,1-1.66,1.91,1.79,1.79,0,0,1,1.66-1.91" transform="translate(-107.19 -333.14)"/><path class="cls-17" d="M318,373.31a6.74,6.74,0,1,1-6.74-6.73,6.73,6.73,0,0,1,6.74,6.73" transform="translate(-107.19 -333.14)"/><path class="cls-17" d="M306.63,384.24a3.53,3.53,0,1,1-3.53-3.53,3.53,3.53,0,0,1,3.53,3.53" transform="translate(-107.19 -333.14)"/><path class="cls-3" d="M369.6,452.68s-18.39-1.53-23.24-9.45l-14.55,55.66s29.62-23.49,37.79-46.21" transform="translate(-107.19 -333.14)"/><path class="cls-15" d="M369.6,452.68s-18.39-1.53-23.24-9.45l-14.55,55.66S361.43,475.4,369.6,452.68Z" transform="translate(-107.19 -333.14)"/><path class="cls-4" d="M191.51,480.77s15.32-14.94,42.38-14.94" transform="translate(-107.19 -333.14)"/><path class="cls-8" d="M123.21,413.87a30.06,30.06,0,0,0,9.8,7.33A33,33,0,0,0,144.88,424c8.2.59,16.46.68,24.71.79s16.49.05,24.74,0,16.5-.16,24.75-.32v1c-8.25.15-16.5.3-24.75.31s-16.51,0-24.76-.13-16.51-.3-24.76-.94a32.8,32.8,0,0,1-12-3.08,28.51,28.51,0,0,1-9.59-7.77" transform="translate(-107.19 -333.14)"/><polygon class="cls-8" points="178.7 186.39 207.3 186.73 194.02 200.69 178.7 186.39"/><polygon class="cls-14" points="178.7 186.39 207.3 186.73 194.02 200.69 178.7 186.39"/></g><path class="cls-7" d="M226.63,494.88c5.12-1.39,21.72-11.84,21.72-11.84l-13-17.69-7.12,2.26,7.95,13.45-37.95,14S199.47,499.34,226.63,494.88Z" transform="translate(-107.19 -333.14)"/><path class="cls-7" d="M212.32,475.29s14-6.16,22.51-11.22c-3.8-5.39-12.94-17-12.94-17l-6.34,1.33,7.38,11.05s-34.09,18.17-35.08,19,0,2.94,0,2.94Z" transform="translate(-107.19 -333.14)"/><path class="cls-7" d="M198.4,449.26c2.21.08,5.37.31,10,.11,3.9-.17,8.2-.55,12.46-1.12a25.55,25.55,0,0,1-5.26-9.68,23.77,23.77,0,0,1,.05-12.95l-6.24-.1-.08,13.09-52.54.19c3.7,6.73,7.88,9.58,11.06,10.92C175.68,453,180.51,448.6,198.4,449.26Z" transform="translate(-107.19 -333.14)"/><path class="cls-8" d="M128.83,418.46l86.86,7.16v4.77c-3.1-.3-8.66-.71-14-1.15-17.14-1.41-25.72-2.12-33-2.15,0,0-11-.06-24.23-1.18a24.25,24.25,0,0,1-8.71-2.25A22.42,22.42,0,0,1,128.83,418.46Z" transform="translate(-107.19 -333.14)"/><path class="cls-8" d="M473,415.68l-92.24,7.43v4.78c3.29-.31,9.19-.74,14.88-1.2,18.2-1.46,27.3-2.19,35-2.25,0,0,11.64-.09,25.73-1.26a27.15,27.15,0,0,0,9.25-2.28A23.54,23.54,0,0,0,473,415.68Z" transform="translate(-107.19 -333.14)"/><path class="cls-6" d="M365.08,466.5c2.65-4.14,3.38-3.83,6-8.27,1.32-2.23,3-4.74,4.26-6.94l6.8.9-1.53,8.37,31.06,15.5a3.48,3.48,0,0,1,.87.74,4.52,4.52,0,0,1,.92,3.54C412.9,481.71,402.05,479.28,365.08,466.5Z" transform="translate(-107.19 -333.14)"/></g><g id="Layer_4" data-name="Layer 4"><path class="cls-17" d="M291.17,470l-4.54,4.77a.48.48,0,0,0,0,.66l3.54,3.75a.47.47,0,0,0,.71,0L295.2,474a.49.49,0,0,1,.67-.07,12.47,12.47,0,0,1,3.71,5.23.48.48,0,0,0,.89,0q6.36-15.6,12.73-31.22a.48.48,0,0,0-.7-.58l-28.53,18a.48.48,0,0,0,.16.87,17.34,17.34,0,0,1,3.08.84,16.89,16.89,0,0,1,3.9,2.11A.47.47,0,0,1,291.17,470Z" transform="translate(-107.19 -333.14)"/><path class="cls-8" d="M108.38,390.51s54.67,9.26,156.88,19.72l-3.4-9L155.62,388.63l-5.52,5.61Z" transform="translate(-107.19 -333.14)"/><path class="cls-8" d="M491.58,388.46s-54.67,9.27-156.88,19.72l3.4-9,106.25-12.63,5.51,5.61Z" transform="translate(-107.19 -333.14)"/><path class="cls-8" d="M203.85,497.59l43.49-16.46,2.17,3.54s-37.91,19.7-44.39,15.25A2.78,2.78,0,0,1,203.85,497.59Z" transform="translate(-107.19 -333.14)"/><path class="cls-8" d="M187.33,480.92l47.18-18.66,1,2.78q-8.49,3.69-17,7.36c-6.88,3-16.58,6.81-16.58,6.81s-9,4.42-12.76,2.77A8,8,0,0,1,187.33,480.92Z" transform="translate(-107.19 -333.14)"/><path class="cls-8" d="M165.61,449.76,220,445.62l1.8,2.66s-29,4.43-34.44,4.48c-6.84.07-9.5.37-12.52,0S165.61,449.76,165.61,449.76Z" transform="translate(-107.19 -333.14)"/><path class="cls-18" d="M379,448.65s4-5.89,5.14-10.73a26,26,0,0,0,.39-10l3.35,0-.27,15.64,55.6,1.5a17.93,17.93,0,0,1-6.26,8.8c-5.15,3.66-10.51,2.45-27.14-.27C389.89,450.34,379,448.65,379,448.65Z" transform="translate(-107.19 -333.14)"/><path class="cls-8" d="M439.52,450.9l-62.23-4-4.77,5.17s57.73,8.86,65.74,1.76A3.18,3.18,0,0,0,439.52,450.9Z" transform="translate(-107.19 -333.14)"/><path class="cls-8" d="M413.88,480,366.7,461.31l-2.95,4.79c13.5,5.92,39.91,14.56,43.61,16.29S413.88,480,413.88,480Z" transform="translate(-107.19 -333.14)"/><path class="cls-6" d="M393.83,495.82c2.16-.81-2.49.7,2.85-1.2l7.44-2.63-42.7-14,7.58-9.49L366.36,467a139.93,139.93,0,0,1-8.81,11.49c-1.36,1.6-2.73,3.13-4.08,4.59,7,3,12.51,5.37,15.7,6.77C369.74,490.1,387.92,498,393.83,495.82Z" transform="translate(-107.19 -333.14)"/><path class="cls-8" d="M397.46,494.77l-41.79-15.2-3.28,3.56s28.34,14,39.77,14.61C392.89,497.33,397.38,495.7,397.46,494.77Z" transform="translate(-107.19 -333.14)"/></g></svg>